# xmcd
#
# Track frame offsets: 
#        150
#        12975
#        23025
#        37575
#        52725
#        67725
#        83775
#        101025
#        112125
#        127665
#        140191
#        150597
#        161772
#
# Disc length: 2400 seconds
#
# Revision: 0
# Processed by: cddbd v1.5.2PL0 Copyright (c) Steve Scherf et al.
# Submitted via: ExactAudioCopy v0.95b3
#
DISCID=98095e0d
DTITLE=Lil' Bit and The Customatics - Whiskey Nights
DYEAR=2005
DGENRE=Country
TTITLE0=Whiskey Nights
TTITLE1=Little Bit More
TTITLE2=No More
TTITLE3=Red Hen Hop
TTITLE4=Old Hot Rod
TTITLE5=Been Gone So Long
TTITLE6=Train Train
TTITLE7=One Too Many
TTITLE8=Free and Fairly Sober
TTITLE9=Mr. Crazy Legs
TTITLE10=Country Boy Rock n' Roll
TTITLE11=Stampede
TTITLE12=The Best Thing
EXTD=
EXTT0=
EXTT1=
EXTT2=
EXTT3=
EXTT4=
EXTT5=
EXTT6=
EXTT7=
EXTT8=
EXTT9=
EXTT10=
EXTT11=
EXTT12=
PLAYORDER=
